<svg
  viewBox="0 0 600 300"
  xmlns="http://www.w3.org/2000/svg"
  font-size="12px"
  font-weight="500"
  font-family="sans-serif"
  fill="#fff"
>
  <path fill="#0a051e" d="M0 0H600V300H0z" />
  <text x="50.693" y="47.379">
    Dark Mode (minimal example)
  </text>
  <text
    x="50.693"
    y="146.835"
    font-weight="700"
    font-size="50px"
    fill="#ffd500"
  >
    Hello world!
  </text>
  <path
    d="M545.325 52.535c1.56 0 2.985-.637 3.928-1.681.14-.155-.012-.38-.228-.343-2.454.419-4.707-1.27-4.707-3.494 0-1.281.763-2.459 2.005-3.093.191-.098.143-.358-.074-.394a5.61 5.61 0 0 0-.924-.076c-2.792 0-5.059 2.031-5.059 4.541 0 2.506 2.263 4.54 5.059 4.54zm-9.178-15.036a1.879 1.879 0 0 0-1.876 1.876c0 1.033.842 1.875 1.876 1.875a1.878 1.878 0 0 0 1.875-1.875 1.878 1.878 0 0 0-1.875-1.876zm4.814 1.573l-1.85-.924.654-1.962a.338.338 0 0 0-.428-.428l-1.961.655-.926-1.853a.339.339 0 0 0-.606 0l-.924 1.851-1.964-.655a.338.338 0 0 0-.428.428l.655 1.962-1.851.926a.338.338 0 0 0 0 .605l1.851.925-.655 1.963a.338.338 0 0 0 .428.428l1.962-.655.924 1.851c.125.25.481.25.606 0l.924-1.851 1.961.655a.338.338 0 0 0 .428-.428l-.654-1.961 1.85-.925a.338.338 0 0 0 .004-.607zm-3.046 2.071a2.504 2.504 0 0 1-3.537 0 2.506 2.506 0 0 1 0-3.537 2.504 2.504 0 0 1 3.537 0 2.504 2.504 0 0 1 0 3.537zm9.323-3.556c.049-.049.04-.137-.02-.197l-.218-.218c-.06-.06-.149-.069-.198-.02L533.924 50.03c-.049.049-.04.137.02.198l.218.217c.06.061.149.07.197.021l12.879-12.879z"
  />
  <text x="50.693" y="206.509">
    Welcome to your new Gatsby site.
  </text>
  <text x="50.693" y="234.816">
    Now go build something great.
  </text>
  <text x="50.693" y="263.123" fill="#0ac">
    Go to page 2
  </text>
  <path fill="#0ac" d="M50.693 263.888H126.816V264.65299999999996H50.693z" />
</svg>
